<?xml version="1.0" encoding="UTF-8"?>
<svg width="200px" height="200px" viewBox="0 0 200 200" version="1.1" xmlns="http://www.w3.org/2000/svg">
    <g stroke="none" stroke-width="1" fill="none" fill-rule="evenodd">
        <circle fill="#1DB954" cx="100" cy="100" r="100"></circle>
        <path d="M160,100 C160,133.137 133.137,160 100,160 C66.863,160 40,133.137 40,100 C40,66.863 66.863,40 100,40 C133.137,40 160,66.863 160,100 Z" stroke="#FFFFFF" stroke-width="8"></path>
        <path d="M140,100 C140,122.091 122.091,140 100,140 C77.909,140 60,122.091 60,100 C60,77.909 77.909,60 100,60 C122.091,60 140,77.909 140,100 Z" stroke="#FFFFFF" stroke-width="6"></path>
        <path d="M120,100 C120,111.046 111.046,120 100,120 C88.954,120 80,111.046 80,100 C80,88.954 88.954,80 100,80 C111.046,80 120,88.954 120,100 Z" stroke="#FFFFFF" stroke-width="4"></path>
        <text font-family="Arial-BoldMT, Arial" font-size="24" font-weight="bold" fill="#FFFFFF">
            <tspan x="50" y="180">MusicMatch</tspan>
        </text>
        <path d="M85,65 L85,135" stroke="#FFFFFF" stroke-width="4" stroke-linecap="round"></path>
        <path d="M115,65 L115,135" stroke="#FFFFFF" stroke-width="4" stroke-linecap="round"></path>
        <path d="M85,80 L115,80" stroke="#FFFFFF" stroke-width="4" stroke-linecap="round"></path>
        <path d="M85,100 L115,100" stroke="#FFFFFF" stroke-width="4" stroke-linecap="round"></path>
        <path d="M85,120 L115,120" stroke="#FFFFFF" stroke-width="4" stroke-linecap="round"></path>
    </g>
</svg>
